<svg width="742" height="848" viewBox="0 0 742 848" fill="none" xmlns="http://www.w3.org/2000/svg">
<path d="M682.847 848C690.835 848 698.741 846.069 706.087 842.323C713.433 838.577 720.068 833.094 725.59 826.205C731.112 819.316 735.408 811.164 738.219 802.239C741.029 793.315 742.296 783.803 741.942 774.279C739.996 721.747 712.022 646.46 635.774 578.465C529.974 484.122 593.827 263.234 454.949 240.739C226.678 203.766 246.994 451.04 106.042 539.2C16.3189 595.315 0.00586198 705.114 0 777.515C0.0144306 796.222 6.254 814.157 17.3466 827.375C28.4391 840.593 43.4764 848.012 59.1516 848H682.847Z" fill="#F3F5FD"/>
<path d="M175.519 494.601L556.789 494.601L556.789 0L175.519 0L175.519 494.601Z" fill="#DEE8F5"/>
<path d="M295.37 74.639C295.37 83.016 292.886 91.2049 288.232 98.1702C283.578 105.135 276.963 110.564 269.224 113.77C261.484 116.976 252.968 117.814 244.752 116.18C236.536 114.546 228.989 110.512 223.066 104.589C217.142 98.6651 213.108 91.1181 211.474 82.9021C209.84 74.686 210.679 66.1698 213.884 58.4305C217.09 50.6911 222.519 44.0761 229.484 39.4221C236.449 34.7681 244.638 32.284 253.015 32.284C258.582 32.2671 264.097 33.3511 269.244 35.4737C274.39 37.5962 279.066 40.7154 283.002 44.6518C286.939 48.5882 290.058 53.2641 292.18 58.4105C294.303 63.5569 295.387 69.0721 295.37 74.639V74.639Z" fill="#C1D8ED"/>
<path d="M253.015 79.003C262.276 79.003 269.783 71.4957 269.783 62.235C269.783 52.9743 262.276 45.467 253.015 45.467C243.754 45.467 236.247 52.9743 236.247 62.235C236.247 71.4957 243.754 79.003 253.015 79.003Z" fill="white"/>
<path d="M283.537 104.008C279.585 108.114 274.845 111.381 269.6 113.613C264.356 115.844 258.715 116.994 253.016 116.994C247.316 116.994 241.675 115.844 236.431 113.613C231.187 111.381 226.446 108.114 222.494 104.008C228.205 91.245 239.734 82.522 253.015 82.522C266.296 82.522 277.826 91.245 283.537 104.008Z" fill="white"/>
<path d="M398.139 32.547H312.629V58.388H398.139V32.547Z" fill="white"/>
<path d="M521.646 74.372H312.629V83.774H521.646V74.372Z" fill="white"/>
<path d="M521.646 99.758H312.629V109.16H521.646V99.758Z" fill="white"/>
<path d="M282.751 143.531H210.661V154.635H282.751V143.531Z" fill="white"/>
<path d="M521.647 166.983H210.661V195.859H521.647V166.983Z" fill="white"/>
<path d="M282.751 217.115H210.661V228.219H282.751V217.115Z" fill="white"/>
<path d="M521.647 240.567H210.661V269.443H521.647V240.567Z" fill="white"/>
<path d="M282.751 290.699H210.661V301.803H282.751V290.699Z" fill="white"/>
<path d="M521.647 314.151H210.661V343.027H521.647V314.151Z" fill="white"/>
<path d="M282.751 364.282H210.661V375.386H282.751V364.282Z" fill="white"/>
<path d="M521.647 387.735H210.661V416.611H521.647V387.735Z" fill="white"/>
<path d="M400.979 441.07H331.327V462.2H400.979V441.07Z" fill="#C1D8ED"/>
<path d="M181.165 401.756C181.165 401.756 188.897 397.656 187.171 376.6L203.147 373.637C203.147 373.637 201.352 392.516 209.435 398.51L181.165 401.756Z" fill="#E98862"/>
<path d="M178.106 368.435C179.212 374.823 182.698 380.873 188.333 382.935C195.023 385.385 199.978 385.551 207.691 385.551C218.216 385.551 217.868 374.574 218.164 363.513C218.464 352.407 217.577 340.494 213.417 336.624C205.117 328.9 180.744 333.792 177.78 346.712C176.247 353.4 177.053 362.354 178.106 368.435Z" fill="#E98862"/>
<path d="M223.805 343.046C223.805 343.046 228.115 342.083 226.935 337.785C226.153 334.934 222.501 335.567 222.501 335.567C222.501 335.567 225.959 334.934 225.959 331.915C225.959 330.015 224.497 326.791 220.088 328.633C214.914 330.794 209.014 330.516 204.527 329.762C201.989 329.206 199.413 328.843 196.82 328.674H196.806C193.825 328.622 190.854 329.019 187.992 329.853C179.972 332.253 167.648 339.474 170.415 355.746C173.406 373.332 184.115 381.06 185.589 382.13C188.359 384.144 205.389 384.552 207.077 382.865C209.603 380.339 210.977 370.183 210.464 352.491C217.444 351.386 222.239 350.915 222.239 350.915C222.239 350.915 228.039 351.133 228.039 346.893C228.039 342.653 223.805 343.046 223.805 343.046Z" fill="#0F1011"/>
<path d="M215.557 365.611C215.679 367.229 215.156 368.83 214.102 370.063C213.048 371.297 211.549 372.064 209.932 372.196C208.314 372.328 206.71 371.815 205.47 370.768C204.23 369.722 203.454 368.227 203.312 366.611C203.232 365.804 203.315 364.99 203.557 364.216C203.798 363.442 204.193 362.725 204.718 362.106C205.242 361.488 205.886 360.982 206.61 360.618C207.334 360.253 208.124 360.039 208.933 359.986C213.311 359.848 215.279 362.229 215.557 365.611Z" fill="#E98862"/>
<path d="M252.815 836.164L230.222 833.479C231.239 824.927 232.386 814.656 232.466 812.972C232.466 813.078 232.466 813.172 232.466 813.237H255.218C255.213 813.919 255.213 815.994 252.815 836.164Z" fill="#E98862"/>
<path d="M162.159 838.884L139.407 838.81C139.407 838.81 139.483 815.318 139.483 813.237H162.235C162.235 815.324 162.159 838.884 162.159 838.884Z" fill="#E98862"/>
<path d="M261.21 828.3C259.326 781.237 259.317 729.9 258.626 682.752C250.926 631.167 246.641 574.634 237.026 523.418L236.737 523.503L235.89 517.728L153.466 516.139L133.543 827.689L173.487 831.064L198.558 573.011C206.523 611.056 211.866 650.506 218.914 688.17C218.914 688.17 221.286 782.597 221.127 828.981L261.21 828.3Z" fill="#262626"/>
<path d="M189.816 847.684C190.4 847.682 190.979 847.564 191.518 847.338C192.057 847.112 192.546 846.783 192.957 846.367C193.369 845.952 193.695 845.46 193.916 844.92C194.137 844.379 194.25 843.799 194.247 843.215C194.247 843.105 194.242 842.994 194.233 842.884C194.167 842.038 193.861 841.229 193.351 840.552C192.84 839.874 192.147 839.357 191.352 839.06L164.871 830.191C164.358 830.021 163.814 829.964 163.277 830.024C162.74 830.084 162.222 830.259 161.759 830.537C158.119 833.064 153.763 834.355 149.334 834.222C145.885 833.977 142.573 832.767 139.778 830.731C139.532 830.53 139.234 830.402 138.919 830.364C138.604 830.325 138.284 830.377 137.997 830.514C137.71 830.65 137.468 830.865 137.298 831.133C137.129 831.402 137.039 831.713 137.04 832.031V844.98C137.04 845.749 137.346 846.487 137.889 847.031C138.433 847.574 139.171 847.88 139.94 847.88H139.953L189.816 847.684Z" fill="#C1D8ED"/>
<path d="M280.535 847.684C281.119 847.682 281.698 847.564 282.237 847.338C282.776 847.112 283.265 846.783 283.676 846.367C284.088 845.952 284.414 845.46 284.635 844.92C284.856 844.379 284.969 843.799 284.966 843.215C284.966 843.105 284.966 842.994 284.952 842.884C284.886 842.038 284.58 841.229 284.07 840.552C283.559 839.874 282.866 839.357 282.071 839.06L255.59 830.191C255.077 830.021 254.533 829.964 253.996 830.024C253.459 830.084 252.941 830.259 252.478 830.537C248.838 833.064 244.482 834.355 240.053 834.222C236.604 833.977 233.292 832.767 230.497 830.731C230.251 830.53 229.953 830.402 229.638 830.364C229.323 830.325 229.003 830.377 228.716 830.514C228.429 830.65 228.187 830.865 228.017 831.133C227.848 831.402 227.758 831.713 227.759 832.031V844.98C227.759 845.749 228.065 846.487 228.608 847.031C229.152 847.574 229.89 847.88 230.659 847.88H230.672L280.535 847.684Z" fill="#C1D8ED"/>
<path d="M129.21 551.678C129.21 554.907 130.91 565.701 128.173 566.472C126.529 566.934 124.587 558.89 124.587 558.89" fill="#E98862"/>
<path d="M116.263 549.983C116.263 549.983 107.31 571.775 117.522 584.295C117.782 584.614 118.133 584.846 118.528 584.963C118.923 585.079 119.343 585.074 119.735 584.947C120.126 584.82 120.471 584.579 120.723 584.253C120.975 583.928 121.123 583.534 121.147 583.123C121.647 574.682 123.347 557.344 128.911 559.369V545.757" fill="#E98862"/>
<path d="M318.15 433.879C318.15 433.879 330.65 423.947 331.539 420.379C332.428 416.811 323.617 409.795 323.617 409.795C323.617 409.795 335.327 397.995 332.992 396.28C330.236 394.26 316.648 411.428 316.648 411.428C316.648 411.428 318.569 405.251 316.176 404.846C315.193 404.68 314.414 405.646 312.876 410.016C311.123 414.997 307.619 422.493 307.619 422.493L318.15 433.879Z" fill="#E98862"/>
<path d="M304.986 420.673L268 462.285L239.034 410.435C236.282 402.297 230.057 396.835 217.378 396.297C213.029 396.11 191.803 396.077 176.263 396.077C165.822 396.077 157.251 399.277 152.302 404.23C149.809 406.687 147.944 409.707 146.863 413.036L146.714 412.981L121.845 480.6C121.565 481.358 121.364 482.143 121.245 482.943L111.21 550.568L134.577 554.036L144.436 487.616L154.478 460.308C155.523 464.505 156.094 468.807 156.178 473.131C156.178 495.888 145.889 506.087 146.642 517.764C147.835 536.123 237.031 531.785 241.576 521.357C246.255 510.602 236.758 503.977 237.176 468.8C237.221 464.973 237.517 460.968 237.924 456.891L255.476 488.31C256.395 489.955 257.695 491.357 259.266 492.397C260.837 493.438 262.635 494.088 264.508 494.292C266.382 494.496 268.277 494.249 270.036 493.571C271.794 492.893 273.365 491.805 274.617 490.396L323.245 433.512L304.986 420.673Z" fill="#367CFF"/>
<path d="M109.821 764.041C104.821 762.404 99.69 764.241 94.78 767.976C101.247 751.646 103.916 736.895 92.86 736.231C85.124 735.766 79.198 741.701 74.696 750.139C73.113 735.303 69.028 724.239 59.878 727.907C49.832 731.935 48.303 745.737 49.827 760.179C45.402 752.802 40.636 748.689 36.309 753.016C23.396 765.929 55.092 802.316 55.092 802.316H62.964L67.456 807.193C66.547 809.116 66.049 810.261 66.049 810.261L71.755 821.873C71.755 821.873 130.573 770.834 109.821 764.041Z" fill="#8DDBE0"/>
<path d="M95.7079 847.88H51.1579L43.7009 795.873H103.165L95.7079 847.88Z" fill="#C1D8ED"/>
<path d="M556.042 480.363C551.556 478.888 546.953 480.547 542.548 483.892C548.349 469.245 550.744 456.013 540.826 455.418C533.886 455.001 528.57 460.326 524.532 467.893C523.112 454.586 519.449 444.661 511.24 447.95C502.229 451.564 500.857 463.945 502.224 476.898C498.25 470.283 493.98 466.593 490.099 470.471C478.516 482.054 506.948 514.699 506.948 514.699H514.008L518.038 519.072C517.221 520.796 516.775 521.825 516.775 521.825L521.894 532.239C521.894 532.239 574.661 486.457 556.042 480.363Z" fill="#8DDBE0"/>
<path d="M543.385 555.567H503.424L496.734 508.917H550.075L543.385 555.567Z" fill="#C1D8ED"/>
<path d="M467.121 824.399H445.819V847.88H467.121V824.399Z" fill="#C1D8ED"/>
<path d="M669.788 824.399H648.486V847.88H669.788V824.399Z" fill="#C1D8ED"/>
<path d="M688.127 556.663H598.75V827.12H688.127V556.663Z" fill="#C1D8ED"/>
<path d="M445.546 562.653H354.02V824.399H445.546V562.653Z" fill="#C1D8ED"/>
<path d="M604.771 827.12H348V556.663H604.771V827.12ZM360.04 815.08H592.732V568.703H360.04V815.08Z" fill="#DEE8F5"/>
<path d="M604.771 827.12H348V678.007H604.771V827.12ZM360.04 815.08H592.732V690.048H360.04V815.08Z" fill="#DEE8F5"/>
<path d="M464.401 590.156V607.379V677.91H573.477V607.379V590.156H464.401Z" fill="#C1D8ED"/>
<path d="M537.725 607.379H428.649V677.91H537.725V607.379Z" fill="#DEE8F5"/>
<path d="M537.725 607.379H428.649V612.666H537.725V607.379Z" fill="#C1D8ED"/>
<path d="M428.651 607.379H537.727V590.156H428.651V607.379Z" fill="#DEE8F5"/>
<path d="M495.276 621.544H471.1C469.712 621.544 468.587 622.669 468.587 624.057V629.621C468.587 631.009 469.712 632.135 471.1 632.135H495.276C496.664 632.135 497.789 631.009 497.789 629.621V624.057C497.789 622.669 496.664 621.544 495.276 621.544Z" fill="white"/>
<path d="M385.703 824.399H364.401V847.88H385.703V824.399Z" fill="#DEE8F5"/>
<path d="M588.37 824.399H567.068V847.88H588.37V824.399Z" fill="#DEE8F5"/>
<path d="M564.138 788.228H445.554V815.08H564.138V788.228Z" fill="#C1D8ED"/>
<path d="M566.176 734.585H447.591V761.437H566.176V734.585Z" fill="#C1D8ED"/>
<path d="M523.671 788.228H398.268V815.08H523.671V788.228Z" fill="#DEE8F5"/>
<g opacity="0.62">
<path d="M513.437 788.228H507.35V815.08H513.437V788.228Z" fill="#C1D8ED"/>
</g>
<g opacity="0.62">
<path d="M501.262 788.228H495.175V815.08H501.262V788.228Z" fill="#C1D8ED"/>
</g>
<path d="M412.646 810.314C417.428 810.314 421.305 806.437 421.305 801.655C421.305 796.873 417.428 792.996 412.646 792.996C407.864 792.996 403.988 796.873 403.988 801.655C403.988 806.437 407.864 810.314 412.646 810.314Z" fill="#F3F5FD"/>
<path d="M525.709 734.585H400.306V761.437H525.709V734.585Z" fill="#DEE8F5"/>
<path d="M495.892 740.633H408.382V755.39H495.892V740.633Z" fill="#F3F5FD"/>
<g opacity="0.62">
<path d="M515.473 734.585H503.955V761.437H515.473V734.585Z" fill="#C1D8ED"/>
</g>
<path d="M455.227 788.258H573.811V761.406H455.227V788.258Z" fill="#C1D8ED"/>
<path d="M407.941 788.258H533.344V761.406H407.941V788.258Z" fill="#F3F5FD"/>
<path d="M418.177 788.258H424.263V761.406H418.177V788.258Z" fill="#DEE8F5"/>
<path d="M430.351 788.258H436.438V761.406H430.351V788.258Z" fill="#DEE8F5"/>
<path d="M518.968 783.491C523.75 783.491 527.627 779.615 527.627 774.833C527.627 770.051 523.75 766.174 518.968 766.174C514.186 766.174 510.309 770.051 510.309 774.833C510.309 779.615 514.186 783.491 518.968 783.491Z" fill="#DEE8F5"/>
<path d="M501.177 768.25H445.819V781.413H501.177V768.25Z" fill="#DEE8F5"/>
</svg>
